<?xml version="1.0" encoding="utf-8"?>
<!-- Generator: Adobe Illustrator 26.2.1, SVG Export Plug-In . SVG Version: 6.00 Build 0)  -->
<svg version="1.1" id="Layer_1" xmlns="http://www.w3.org/2000/svg" xmlns:xlink="http://www.w3.org/1999/xlink" x="0px" y="0px"
	 viewBox="0 0 16 16" style="enable-background:new 0 0 16 16;" xml:space="preserve">
<style type="text/css">
	.st0{fill:none;}
	.st1{fill:#595971;}
	.st2{fill:#655F5F;}
	.st3{fill:#6695D2;}
</style>
<rect class="st0" width="16" height="16"/>
<g id="ELM_Ligistic">
	<path class="st1" d="M14.2,9c0,3.4-2.8,6.2-6.3,6.2c-1.1,0-2-0.3-2.9-0.7c0,0,0,0,0,0c0.7,0.2,1.4,0.4,2.1,0.4
		c3.5,0,6.3-2.8,6.3-6.2c0-2.1-1.1-4-2.7-5.1c0,0,0-0.1,0-0.1C12.8,4.5,14.2,6.5,14.2,9z"/>
	<path class="st2" d="M13,9.3c-1.2,3-3.3,4-5.3,4.2c-4,0.4-7.4-2.8-7-6.8c0-0.2,0-0.4,0.1-0.5c0,0,0,0,0,0c-0.2,0.6-0.3,1.3-0.3,2
		c0,3.5,2.9,6.3,6.4,6.3C9.6,14.2,12.2,13,13,9.3z"/>
	<path class="st3" d="M15.5,8.6c0,2.6-1.5,4.8-3.7,5.9c-0.1,0-0.2-0.1-0.1-0.2c1.8-1.1,3-3.1,3-5.4c0-3.5-2.9-6.4-6.5-6.4
		c-0.7,0-1.3,0.1-1.9,0.3c-0.1,0-0.1-0.1,0-0.1C7.1,2.3,8,2,9,2C12.6,2,15.5,5,15.5,8.6z"/>
	<path class="st3" d="M15.4,5.9C14.4,3.4,11.5,1.7,9,1.7c-3.5,0-6.2,2.7-6.2,6.2c0,0,0,0,0,0.1c0,0.1-0.1,0.1-0.2,0
		c-0.1-0.5-0.1-0.9,0-1.4c0.3-3,2.7-5.3,5.6-5.7C11.7,0.4,14.7,2.8,15.4,5.9C15.4,5.9,15.4,6,15.4,5.9z"/>
	<g>
		<path class="st3" d="M4.2,5.3H6v0.5H4.7v0.4h1.1v0.5H4.7v0.5H6v0.5H4.2V5.3z"/>
		<path class="st3" d="M6.3,5.4H7v1.9h1.2v0.5H6.3V5.4z"/>
		<path class="st3" d="M8.4,5.4h0.5c0,0,0,0,0,0l0.8,1.3c0,0,0,0,0,0l0.7-1.3c0,0,0,0,0,0h0.5l0,2.3h-0.6l0-1.2c0,0,0,0,0,0L10,7.4
			c0,0-0.1,0.1-0.1,0.1H9.6c0,0-0.1,0-0.1,0L9,6.5c0,0,0,0,0,0l0,1.2H8.4V5.4z"/>
	</g>
	<g>
		<g>
			<path class="st2" d="M1.5,8.1h0.4v1.6H1.5V8.1z"/>
			<path class="st2" d="M3.3,9.1c0,0.4-0.3,0.6-0.6,0.6c-0.3,0-0.6-0.2-0.6-0.6c0-0.3,0.2-0.6,0.6-0.6C3.1,8.6,3.3,8.8,3.3,9.1z
				 M2.5,9.1c0,0.2,0.1,0.3,0.2,0.3c0.1,0,0.2-0.1,0.2-0.3c0-0.2-0.1-0.3-0.2-0.3C2.6,8.9,2.5,9,2.5,9.1z"/>
			<path class="st2" d="M4.6,8.6c0,0.1,0,0.1,0,0.3v0.6c0,0.2,0,0.4-0.2,0.5c-0.1,0.1-0.3,0.1-0.5,0.1c-0.2,0-0.3,0-0.4-0.1l0.1-0.3
				c0.1,0,0.2,0.1,0.3,0.1c0.1,0,0.3-0.1,0.3-0.3V9.5h0C4.2,9.6,4.1,9.7,4,9.7c-0.3,0-0.5-0.2-0.5-0.5c0-0.3,0.2-0.6,0.5-0.6
				c0.1,0,0.2,0.1,0.3,0.1h0l0-0.1H4.6z M4.2,9.1C4.2,9,4.2,9,4.2,9.1c0-0.1-0.1-0.2-0.2-0.2C4,8.9,3.9,9,3.9,9.1
				c0,0.1,0.1,0.2,0.2,0.2c0.1,0,0.1-0.1,0.2-0.1c0,0,0-0.1,0-0.1V9.1z"/>
			<path class="st2" d="M5.3,8.3c0,0.1-0.1,0.2-0.2,0.2C5,8.5,4.9,8.4,4.9,8.3c0-0.1,0.1-0.2,0.2-0.2C5.2,8.1,5.3,8.2,5.3,8.3z
				 M4.9,9.7V8.6h0.4v1.1H4.9z"/>
			<path class="st2" d="M5.5,9.4c0.1,0,0.2,0.1,0.3,0.1C6,9.4,6,9.4,6,9.4c0,0,0-0.1-0.2-0.1C5.6,9.2,5.5,9.1,5.5,9
				c0-0.2,0.2-0.4,0.5-0.4c0.1,0,0.3,0,0.3,0.1L6.3,8.9C6.2,8.9,6.1,8.8,6,8.8c-0.1,0-0.1,0-0.1,0.1c0,0,0,0.1,0.2,0.1
				c0.2,0.1,0.3,0.2,0.3,0.3c0,0.2-0.2,0.4-0.5,0.4c-0.2,0-0.3,0-0.4-0.1L5.5,9.4z"/>
			<path class="st2" d="M7,8.3v0.3h0.2v0.3H7v0.3c0,0.1,0,0.2,0.1,0.2c0,0,0.1,0,0.1,0l0,0.3c0,0-0.1,0-0.2,0c-0.1,0-0.2,0-0.3-0.1
				C6.6,9.5,6.6,9.4,6.6,9.3V8.9H6.5V8.6h0.1V8.4L7,8.3z"/>
			<path class="st2" d="M7.8,8.3c0,0.1-0.1,0.2-0.2,0.2c-0.1,0-0.2-0.1-0.2-0.2c0-0.1,0.1-0.2,0.2-0.2C7.7,8.1,7.8,8.2,7.8,8.3z
				 M7.4,9.7V8.6h0.4v1.1H7.4z"/>
			<path class="st2" d="M8.8,9.6L8.8,9.6C8.7,9.7,8.6,9.7,8.5,9.7C8.2,9.7,8,9.5,8,9.2c0-0.4,0.3-0.6,0.5-0.6c0.1,0,0.2,0,0.3,0.1
				l0,0l0-0.1h0.4c0,0.1,0,0.2,0,0.3v1.2H8.8V9.6z M8.8,9.1C8.8,9.1,8.8,9.1,8.8,9.1c0-0.1-0.1-0.2-0.2-0.2C8.5,8.9,8.4,9,8.4,9.1
				c0,0.2,0.1,0.3,0.2,0.3c0.1,0,0.2-0.1,0.2-0.1c0,0,0,0,0-0.1V9.1z"/>
			<path class="st2" d="M10.5,9.3c0,0.2,0,0.3,0,0.4h-0.3l0-0.2h0c0,0.1-0.1,0.2-0.3,0.2c-0.2,0-0.4-0.1-0.4-0.5V8.6h0.4v0.6
				c0,0.1,0.1,0.2,0.2,0.2c0.1,0,0.1-0.1,0.2-0.1c0,0,0,0,0-0.1V8.6h0.4V9.3z"/>
			<path class="st2" d="M11.1,9.3c0,0.1,0.2,0.1,0.3,0.1c0.1,0,0.2,0,0.3,0l0,0.3c-0.1,0.1-0.3,0.1-0.4,0.1c-0.4,0-0.6-0.2-0.6-0.6
				c0-0.2,0.2-0.6,0.6-0.6c0.4,0,0.5,0.3,0.5,0.6c0,0.1,0,0.1,0,0.1H11.1z M11.5,9c0-0.1,0-0.2-0.2-0.2c-0.1,0-0.2,0.1-0.2,0.2H11.5
				z"/>
		</g>
	</g>
</g>
</svg>
